# xmcd CD database file
#
# Track frame offsets:
#	150
#	15652
#	25792
#	40262
#	62260
#	79802
#	95304
#	107829
#	126587
#	147200
#	163230
#	187090
#	202292
#	219712
#	234147
#	250775
#	272470
#	289182
#
# Disc length: 4086 seconds
#
# Revision: 0
# Processed by: cddbd v1.4PL0 Copyright (c) Steve Scherf et al.
# Submitted via: CDex 1.51
#
DISCID=040ff412
DTITLE=lino patruno - jazz show
DYEAR=1900
DGENRE=Jazz
TTITLE0=amapola
TTITLE1=yes sir,that's my baby
TTITLE2=dream a little dream
TTITLE3=new orleans
TTITLE4=as time goes by
TTITLE5=bye bye blues
TTITLE6=petite fleur
TTITLE7=stop stop
TTITLE8=georgia on my mind
TTITLE9=guitar medley
TTITLE10=san francisco style
TTITLE11=old america
TTITLE12=summertime
TTITLE13=shadows of big t
TTITLE14=remembering randolph scott
TTITLE15=liz darlin
TTITLE16=appassionato step
TTITLE17=ines my mother
EXTD=
EXTT0=
EXTT1=
EXTT2=
EXTT3=
EXTT4=
EXTT5=
EXTT6=
EXTT7=
EXTT8=
EXTT9=
EXTT10=
EXTT11=
EXTT12=
EXTT13=
EXTT14=
EXTT15=
EXTT16=
EXTT17=
PLAYORDER=
